#!OML:ASF X:\für Bonn\!DataBase\2005_08_12_Daniel\c3d\Daniel.ASF
:FULLY-SPECIFIED
:DEGREES
94
root 12.4744 15.8491 0.0235344 -740.807 -69.3676 740.277
lowerback 3.11649 -13.8655 -4.45366
upperback 0.623848 -18.646 -0.889392
thorax 0.0389981 -9.33409 1.79084
lowerneck 0.648255 7.92575 1.69541
upperneck 5.98654 10.8702 -8.37238
head 2.431 5.20941 -2.76118
rclavicle 8.63222e-014 3.18055e-015
rhumerus -63.9289 -1.41026 -78.5253
rradius 33.9007
rwrist 12.7552
rhand -14.3051 9.83476
rfingers 7.12502
rthumb 11.8349 -19.8108
lclavicle 8.63222e-014 3.18055e-015
lhumerus -8.98208 11.1225 85.8802
lradius 128.115
lwrist 198.346
lhand -4.17152 19.9534
lfingers 7.12502
lthumb 21.5892 48.77
rfemur -42.2975 0.749767 -3.79969
rtibia 37.0242
rfoot -15.0153 -13.8695
rtoes -11.8274
lfemur 24.3675 -11.5247 -25.1336
ltibia 26.417
lfoot -31.3824 7.00611
ltoes -26.6357
95
root 12.2784 15.8478 -0.0204258 -740.343 -69.7809 739.886
lowerback 2.82192 -14.0061 -4.20694
upperback 0.520336 -18.8098 -0.698489
thorax 0.0873886 -9.41498 1.79781
lowerneck 0.729607 8.14017 1.91841
upperneck 5.86932 11.1634 -8.69027
head 2.43394 5.35731 -2.90159
rclavicle 1.49089e-016 -2.78299e-015
rhumerus -63.9602 -1.37191 -78.32
rradius 33.5466
rwrist 12.5913
rhand -13.2566 10.5738
rfingers 7.12502
rthumb 12.8458 -19.0109
lclavicle 1.49089e-016 -2.78299e-015
lhumerus -9.50425 10.9724 85.9355
lradius 128.422
lwrist 197.985
lhand -4.17448 20.2874
lfingers 7.12502
lthumb 21.5864 49.1043
rfemur -42.6784 0.168294 -2.78592
rtibia 37.7556
rfoot -12.7632 -13.2173
rtoes -9.85501
lfemur 24.6749 -11.2264 -24.3545
ltibia 26.3813
lfoot -30.0849 6.59784
ltoes -27.2449
96
root 12.08 15.8491 -0.0643862 -739.86 -70.2357 739.43
lowerback 2.59589 -14.1593 -3.98362
upperback 0.415124 -18.9959 -0.492128
thorax 0.110606 -9.50672 1.84639
lowerneck 0.842144 8.37967 2.21436
upperneck 5.74782 11.4916 -9.04823
head 2.44234 5.52446 -3.06896
rclavicle 1.68048e-013 -6.75868e-015
rhumerus -63.9461 -1.31181 -78.0883
rradius 33.2491
rwrist 12.2687
rhand -12.2965 11.1983
rfingers 7.12502
rthumb 13.7712 -18.326
lclavicle 1.68048e-013 -6.75868e-015
lhumerus -10.2621 10.8538 85.885
lradius 128.733
lwrist 197.631
lhand -4.11114 20.6383
lfingers 7.12502
lthumb 21.6472 49.4482
rfemur -43.0571 -0.32938 -1.72243
rtibia 38.5952
rfoot -10.7178 -12.4721
rtoes -7.37157
lfemur 24.9867 -10.9346 -23.5889
ltibia 26.4203
lfoot -28.617 6.26506
ltoes -27.7275
97
root 11.8807 15.8516 -0.109178 -739.291 -70.7336 738.833
lowerback 2.46614 -14.3045 -3.72612
upperback 0.307994 -19.1759 -0.270421
thorax 0.0741556 -9.59453 1.92102
lowerneck 0.83621 8.62575 2.52189
upperneck 5.72336 11.8374 -9.40336
head 2.5092 5.69449 -3.2307
rclavicle 1.15071e-013 5.1684e-015
rhumerus -63.8487 -1.32559 -77.7564
rradius 32.894
rwrist 11.8337
rhand -11.4688 11.7871
rfingers 7.12502
rthumb 14.5688 -17.6812
lclavicle 1.15071e-013 5.1684e-015
lhumerus -11.2132 10.8046 85.7318
lradius 129.045
lwrist 197.353
lhand -4.07601 20.9622
lfingers 7.12502
lthumb 21.681 49.7682
rfemur -43.4132 -0.777225 -0.582332
rtibia 39.531
rfoot -9.06558 -11.5606
rtoes -6.10145
lfemur 25.25 -10.6511 -22.8039
ltibia 26.632
lfoot -26.9187 6.00024
ltoes -27.9884
98
root 11.6804 15.8558 -0.153275 -738.738 -71.2436 738.208
lowerback 2.40019 -14.4499 -3.4756
upperback 0.218434 -19.3594 -0.0516453
thorax 0.0230024 -9.68445 2.01036
lowerneck 0.714886 8.88608 2.86273
upperneck 5.76464 12.2099 -9.7692
head 2.62767 5.8731 -3.39465
rclavicle -4.95222e-014 1.31198e-014
rhumerus -63.533 -1.56653 -77.19
rradius 32.3211
rwrist 11.594
rhand -10.8874 12.3948
rfingers 7.12502
rthumb 15.1289 -17.0322
lclavicle -4.95222e-014 1.31198e-014
lhumerus -12.2999 10.7871 85.6056
lradius 129.34
lwrist 197.094
lhand -4.03899 21.3221
lfingers 7.12502
lthumb 21.7165 50.124
rfemur -43.7412 -1.28004 0.609613
rtibia 40.5551
rfoot -7.72284 -10.4424
rtoes -5.90005
lfemur 25.4019 -10.39 -22.068
ltibia 27.077
lfoot -24.9926 5.84382
ltoes -28.2862
99
root 11.4794 15.8608 -0.198799 -738.181 -71.7818 737.525
lowerback 2.46127 -14.5753 -3.21166
upperback 0.0767148 -19.5215 0.163055
thorax -0.157489 -9.76093 2.1358
lowerneck 0.636673 9.14671 3.20572
upperneck 5.85681 12.5846 -10.1118
head 2.75794 6.05218 -3.552
rclavicle 1.14053e-013 -7.95139e-015
rhumerus -63.1795 -2.09712 -76.3415
rradius 31.6654
rwrist 11.6535
rhand -10.57 12.9832
rfingers 7.12502
rthumb 15.4347 -16.4205
lclavicle 1.14053e-013 -7.95139e-015
lhumerus -13.5665 10.7491 85.58
lradius 129.533
lwrist 196.831
lhand -4.10532 21.7188
lfingers 7.12502
lthumb 21.6528 50.5281
rfemur -44.0128 -1.76922 1.8467
rtibia 41.6266
rfoot -6.63057 -9.21879
rtoes -6.18953
lfemur 25.4132 -10.1214 -21.3365
ltibia 27.8051
lfoot -22.9365 5.70107
ltoes -28.4562
100
root 11.2786 15.8664 -0.245988 -737.784 -72.3088 736.947
lowerback 2.61469 -14.695 -3.02651
upperback -0.0665006 -19.6806 0.369156
thorax -0.366915 -9.83564 2.31296
lowerneck 0.477624 9.41186 3.50613
upperneck 6.02074 12.9696 -10.4083
head 2.92483 6.23135 -3.67989
rclavicle -8.08805e-014 1.03368e-014
rhumerus -62.7124 -2.72908 -75.4312
rradius 31.0532
rwrist 11.7289
rhand -10.5801 13.4597
rfingers 7.12502
rthumb 15.425 -15.9447
lclavicle -8.08805e-014 1.03368e-014
lhumerus -14.9242 10.766 85.5566
lradius 129.666
lwrist 196.684
lhand -4.26752 21.9838
lfingers 7.12502
lthumb 21.497 50.8109
rfemur -44.2029 -2.16947 3.00825
rtibia 42.7149
rfoot -5.75802 -8.00802
rtoes -6.75056
lfemur 25.3038 -9.91769 -20.7093
ltibia 28.8068
lfoot -20.6957 5.60214
ltoes -28.1631
